<svg version="1.1" id="Layer_1" xmlns:x="ns_extend;" xmlns:i="ns_ai;" xmlns:graph="ns_graphs;" xmlns="http://www.w3.org/2000/svg" xmlns:xlink="http://www.w3.org/1999/xlink" x="0px" y="0px" viewBox="0 0 148 43" style="enable-background:new 0 0 148 43;" xml:space="preserve">
 <style type="text/css">
  .st0{fill:#2FF19E;}
 </style>
 <metadata>
  <sfw xmlns="ns_sfw;">
   <slices>
   </slices>
   <sliceSourceBounds bottomLeftOrigin="true" height="42.2" width="146.8" x="0.9" y="0.5">
   </sliceSourceBounds>
  </sfw>
 </metadata>
 <g>
  <g>
   <g>
    <path class="st0" d="M33.2,0.2c-3.4,0-6.6,1.3-9,3.7l1.3,2.5l-0.5,0.4c-1.1-2-2.8-3.6-4.7-4.8c-2-1.1-4.2-1.8-6.5-1.8
				C6.6,0.3,0.9,6.5,0.9,13.9v15.7c0,0.1,0,0.3,0.1,0.4c0,0.1,0.1,0.2,0.2,0.3c0.1,0.1,0.2,0.2,0.3,0.2c0.1,0,0.3,0.1,0.4,0.1H7
				c0.1,0,0.3,0,0.4-0.1c0.1,0,0.2-0.1,0.3-0.2c0.1-0.1,0.2-0.2,0.2-0.3C8,29.9,8,29.8,8,29.7v-16c0-3.6,2.2-6.6,6-6.6
				c3.5,0,6,2.6,6,6.5v13.1c0,0.1,0,0.3,0.1,0.4c0,0.1,0.1,0.2,0.2,0.3c0.1,0.1,0.2,0.2,0.3,0.2c0.1,0.1,0.2,0.1,0.4,0.1h4.9
				c0.1,0,0.3,0,0.4-0.1c0.1-0.1,0.2-0.1,0.3-0.2c0.1-0.1,0.2-0.2,0.2-0.3c0-0.1,0.1-0.3,0.1-0.4V13.6c-0.1-0.8,0.1-1.7,0.3-2.5
				c0.3-0.8,0.7-1.5,1.3-2.1c0.6-0.6,1.3-1.1,2-1.4c0.8-0.3,1.6-0.5,2.4-0.5c3.7,0,5.8,3,5.8,6.6v15.9c0,0.3,0.1,0.5,0.3,0.7
				c0.2,0.2,0.4,0.3,0.7,0.3h5.1c0.1,0,0.3,0,0.4-0.1c0.1,0,0.2-0.1,0.3-0.2c0.1-0.1,0.2-0.2,0.2-0.3c0-0.1,0.1-0.3,0.1-0.4V13.8
				C45.8,6.5,40.3,0.2,33.2,0.2z">
    </path>
    <path class="st0" d="M79.6,0.8h-4.7c-0.1,0-0.3,0-0.4,0.1c-0.1,0-0.2,0.1-0.3,0.2c-0.1,0.1-0.2,0.2-0.2,0.3s-0.1,0.3-0.1,0.4v0.6
				l1.7,2.6l-0.5,0.4c-1.4-1.6-3.1-2.9-5-3.8c-1.9-0.9-4-1.4-6.1-1.4C60,0.4,56.2,2.1,53.5,5s-4.3,6.7-4.3,10.6s1.5,7.8,4.2,10.7
				c2.7,2.9,6.5,4.6,10.4,4.8c2.1,0,4.2-0.5,6.2-1.4c1.9-0.9,3.7-2.2,5-3.8l0.4,0.3l-1.7,2.7v0.6c0,0.1,0,0.3,0.1,0.4
				c0.1,0.1,0.1,0.2,0.2,0.3c0.1,0.1,0.2,0.2,0.3,0.2c0.1,0.1,0.3,0.1,0.4,0.1h4.8c0.1,0,0.3,0,0.4-0.1c0.1,0,0.2-0.1,0.3-0.2
				c0.1-0.1,0.2-0.2,0.2-0.3c0-0.1,0.1-0.3,0.1-0.4V1.8c0-0.1,0-0.3-0.1-0.4c0-0.1-0.1-0.2-0.2-0.3c-0.1-0.1-0.2-0.2-0.3-0.2
				C79.8,0.8,79.7,0.8,79.6,0.8z M63.8,24.5c-2.3,0-4.6-0.9-6.2-2.6C55.9,20.3,55,18,55,15.7s0.9-4.6,2.6-6.2
				c1.7-1.7,3.9-2.6,6.2-2.6c2.3,0,4.6,0.9,6.2,2.6c1.7,1.7,2.6,3.9,2.6,6.2s-0.9,4.6-2.6,6.2C68.4,23.6,66.2,24.5,63.8,24.5z">
    </path>
    <path class="st0" d="M146.7,0.8H142c-0.1,0-0.3,0-0.4,0.1c-0.1,0-0.2,0.1-0.3,0.2c-0.1,0.1-0.2,0.2-0.2,0.3
				C141,1.5,141,1.7,141,1.8v0.6l1.7,2.6l-0.5,0.4c-1.4-1.6-3.1-2.9-5-3.8c-1.9-0.9-4-1.4-6.1-1.4c-4.1,0-8,1.6-10.9,4.5
				c-2.9,2.9-4.5,6.8-4.5,10.9c0,4.1,1.6,8,4.5,10.9s6.8,4.5,10.9,4.5c2.1,0,4.2-0.5,6.2-1.4c1.9-0.9,3.7-2.2,5-3.8l0.4,0.3L141,29
				v0.6c0,0.1,0,0.3,0.1,0.4c0.1,0.1,0.1,0.2,0.2,0.3c0.1,0.1,0.2,0.2,0.3,0.2c0.1,0.1,0.3,0.1,0.4,0.1h4.7c0.1,0,0.3,0,0.4-0.1
				c0.1,0,0.2-0.1,0.3-0.2c0.1-0.1,0.2-0.2,0.2-0.3c0-0.1,0.1-0.3,0.1-0.4V1.8c0-0.1,0-0.3-0.1-0.4c0-0.1-0.1-0.2-0.2-0.3
				c-0.1-0.1-0.2-0.2-0.3-0.2C146.9,0.8,146.8,0.8,146.7,0.8z M131,24.5c-2.3,0-4.6-0.9-6.2-2.6s-2.6-3.9-2.6-6.2s0.9-4.6,2.6-6.2
				c1.7-1.7,3.9-2.6,6.2-2.6c2.3,0,4.6,0.9,6.2,2.6c1.6,1.7,2.6,3.9,2.6,6.2s-0.9,4.6-2.6,6.2C135.6,23.6,133.3,24.5,131,24.5z">
    </path>
    <path class="st0" d="M111.7,0.8h-4.8c-0.8,0-1.2,0.4-1.2,0.8v14.5c0.1,1-0.1,2-0.4,3c-0.4,1-0.9,1.8-1.6,2.5
				c-0.7,0.7-1.6,1.3-2.5,1.7s-2,0.5-3,0.5c-4.2,0-7-3.1-7-7.7V1.7c0-0.4-0.7-0.8-1.1-0.8h-5.2c-0.2,0-0.4,0.1-0.6,0.3
				c-0.2,0.2-0.2,0.4-0.3,0.6v14.4c0,3.8,1.4,7.4,4,10.1c2.6,2.7,6.2,4.3,10,4.3c3.6,0,7.1-1.3,9.8-3.7l0.3,0.2L106,30v1.2
				c0,3-4.5,4.6-7.1,4.6h-1.7c-0.1,0-0.3,0-0.4,0.1c-0.1,0-0.2,0.1-0.3,0.2s-0.2,0.2-0.2,0.3c-0.1,0.1-0.1,0.3-0.1,0.4v4.7
				c0,0.3,0.1,0.5,0.3,0.7c0.2,0.2,0.5,0.3,0.7,0.3h1.7c8,0,13.8-4.6,13.8-13.4V1.7c0-0.2-0.2-0.5-0.3-0.6
				C112.2,0.9,111.9,0.8,111.7,0.8z">
    </path>
   </g>
  </g>
 </g>
</svg>