<svg xmlns="http://www.w3.org/2000/svg" version="1.1" xmlns:xlink="http://www.w3.org/1999/xlink" width="2718.08" height="1807.35"><svg id="SvgjsSvg1009" data-name="Layer 2" xmlns="http://www.w3.org/2000/svg" viewBox="0 0 2718.08 1807.35">
  <defs>
    <style>
      .cls-1 {
        fill: #133d87;
      }
    </style>
  </defs>
  <g id="SvgjsG1008" data-name="Layer 1">
    <g id="SvgjsG1007">
      <g>
        <path class="cls-1" d="M1354.36,1083.05c-5.96-2.64-11.92-5.26-17.89-7.84-.15-.07-.31-.14-.46-.22.16.08.31.15.46.21,5.97,2.58,11.93,5.2,17.89,7.85Z"></path>
        <path class="cls-1" d="M1467.17,1134.81c-17.83-8.08-35.62-16.36-53.41-24.62,17.79,8.25,35.58,16.53,53.41,24.62Z"></path>
        <path class="cls-1" d="M1490.98,1145.46c5.97,2.62,11.94,5.21,17.92,7.77-5.98-2.55-11.95-5.14-17.92-7.77Z"></path>
        <path class="cls-1" d="M1568.18,1171.46c-.18.13-.36.24-.53.34.18-.1.36-.21.53-.34Z"></path>
        <path class="cls-1" d="M1567.55,1171.86s-.06.05-.09.06c-8.92,4.75-30.39-6.96-40.59-11.15-4-1.64-8-3.31-11.99-5,3.99,1.68,7.99,3.35,11.99,4.99,10.2,4.19,31.67,15.9,40.59,11.15.03-.02.06-.03.09-.05Z"></path>
        <path class="cls-1" d="M1568.93,1170.85c-.25.23-.51.44-.75.61.24-.18.5-.38.75-.61Z"></path>
        <path class="cls-1" d="M1572.11,1167.14c-.77,1.09-1.52,2.02-2.24,2.78.71-.76,1.46-1.69,2.24-2.78Z"></path>
        <path class="cls-1" d="M1580.45,1152.22c-.85,1.77-1.68,3.44-2.5,5.01.81-1.57,1.65-3.25,2.5-5.01Z"></path>
        <path class="cls-1" d="M1584.52,1143.33c-.59,1.35-1.18,2.67-1.77,3.95.58-1.28,1.17-2.6,1.77-3.95Z"></path>
        <path class="cls-1" d="M1584.52,1143.32c.99-2.26,2-4.61,3.02-7.04-1.02,2.44-2.02,4.79-3.02,7.04Z"></path>
        <path class="cls-1" d="M2718.08,880.71v130.29l-375.87,68.96-7.02-7.22-5.12-118.4,365.78-66.85c4.63-2.21,14.14-4.11,22.23-6.78Z"></path>
        <path class="cls-1" d="M1763.99,605.78c-57.4,76.6-323.96,139.15-419.28,151.35-16.05,2.05-59.98,8.3-71.87,2.81-20.96-26.22-99.35-67.54-112.27-93.51-4.55-9.15,28.8-12.13,32.75-18.61,146.16-46.28,332.87-145.23,486.21-93.41,11.04,3.73,86.25,35.65,89.02,39.66,3,4.35-2.23,8.61-4.56,11.71Z"></path>
        <path class="cls-1" d="M1226.96,1080.18c-1.18-.07-2.17-.24-3.05-.52.88.27,1.87.44,3.05.52Z"></path>
        <path class="cls-1" d="M1317.67,1063.1c-.56-.23-1.11-.42-1.64-.55-16.78-4.13-69.14,18.01-88.16,17.67-.16-.01-.31-.01-.47-.02.16.01.31.01.47.01,19.02.34,71.38-21.8,88.16-17.67.53.13,1.08.32,1.64.56Z"></path>
        <path class="cls-1" d="M2250.31,0l-41.15,59.36c-47.61,84.24-72.22,178.53-106.88,268.24-92.91-.21-186.89,9.77-278.68,24.41-219.57,35.02-434.76,101.57-638.15,189.73-17.16,7.43-109.73,55.34-116.16,55.32-4.83-.02-48.16-31.2-51.54-35.7-5.02-6.69-1.44-7.28,2.33-11.93,7.81-9.63,54.22-40.27,67.83-49.11,20.81-13.51,44.56-23.41,64.79-38.1l176.19-83.34-472.38,79.43c182.55-195.31,444.8-302.82,700.56-368.15C1783.03,32.44,2018.24,14.37,2250.31,0Z"></path>
        <path class="cls-1" d="M2264.16,1157.73l.41-140.65c-8.18-135.12-82.27-417.75-227.31-464.92-119.69-38.92-188.12,105.6-212.09,198.99-38.68,150.72-28.11,326.4-5.11,478.9l-339.63,65.07c-34.34,3.44-82.29-27.89-114.18-43.89-68.81-34.55-142.47-74.85-208.87-113.86-9.91-5.82-57.59-32.91-60.39-38.21-1.55-2.93,13.78-53.66,15.59-64.34,7.28-42.79,10.66-86.2,15.75-129.25,2.82-23.82,14.79-54.69,8.91-79.14-1.6-6.65-94.5-73.09-105.51-87.27-39.03-40.75-87.06-35.76-140.12-32.89-253.91,13.72-529.51,90.69-774.09,156.68-6.32,1.71-12.08,3.45-18.71,2.3l201.08-212.82c.73-3.57-4.31-2.87-6.89-2.23-45.51,11.44-127.43,53.18-174,73.92-39.39,17.54-78.07,37.5-116.88,56.32-.63.4-1.35.51-2.12.43v952.92c0,40.63,32.94,73.56,73.57,73.56h588.56c9.08-1,18.22-1.57,27.06-3.23,236.24-44.34,472.54-88.81,708.78-133.13,160.39-30.09,335.46-51.1,492.28-92.38,143.41-37.75,272.68-106.62,339.76-244.9,121.86-27.14,245.31-46.93,367.58-72.08,35.21-7.24,71.59-16.09,107.54-23.42,2.13-.43,7.54-3.33,12.95-5.31v-154.83l-453.92,79.66ZM42.68,1169.26c-8.98-8.18,21.68-17.23,25.61-18.8,172.53-69.22,431.77-106.39,618.74-143.64,111.11-22.13,223.23-39.24,333.16-66.7-11.77,25.77-.24,75.3-32.49,82.06-204.42,37.56-409.04,72.99-614.22,106.08-75.62,12.2-164.15,35.07-239.67,40.97-11.65.91-87.76,3.1-91.13.03ZM678.8,1646.35c10.79-26.53,26.59-49.93,38.18-76.37,4.16-9.48,12.51-42.65,14.01-44.43,1.42-1.68,30.13-6.65,36.54-7.93,19.62-3.91,75.51-16.77,91.09-16.41,42.31.99,105.63,17.75,150.45,22.99,62.8,7.35,126.06,12.27,188.86,19.31l-519.13,102.84ZM1277.44,1332.97c-2.91,2.5-63.75,8.15-75.91,10.62-48.53,9.85-138.54,36.73-183.69,36.59-36.54-.11-76.99-50.15-116.68-47.31-265.43,50.69-531.14,100.54-797.67,145.09-3.35-3.09,37.94-76.45,45.14-78.76,7.95-2.54,18.37.5,26.87-1.2,268.94-53.54,540.73-96.42,810.26-148.89,26.95-.64,89.56,54.25,117.37,59.79,19.77,3.94,83.43-20.66,110.79-18.02,5.46.53,48.35,24.52,55.28,29.32,2.95,2.04,13.86,7.94,8.24,12.77Z"></path>
        <path class="cls-1" d="M2439.93,55.94c-150.07-48.48-186.78,37.92-229.17,159.38-5.01,14.37-36.17,107.69-34.69,113.44,4.22,16.46,65.42,54.86,82.61,62.78,26.81,12.34,97.4,34.07,124.96,34.07,15.27,0,101.38,3.58,105.23,0,3.76-3.49-3.99-11.06-6.87-14.17-21.66-23.42-58.62-48.31-83.47-70.88-2.64-2.39-13.18-8.39-7.86-13.15,2.36-2.1,52.42.56,63.1-.05,55.27-3.18,112.89-8.16,168.21-9.53,12.63-.31,70.54-1.79,96.1,1.25v-125.7c-92.36-41.26-182.15-106.43-278.15-137.44ZM2536.9,242.12c-29.19,6.95-65.84,8.67-95.91,16.32l-139.18,31.5c-3.08-3.12,2.77-12.65,4.38-16.62,7.73-19.04,31.65-73.12,42.11-87.66,3.31-4.6,7.56-5.84,12.83-6.85,21.43-4.12,61.21-8.84,83.35-10.43,29.55-2.12,68.87-6,88.66,18.85,4.3,5.39,20.54,39.7,20.1,44.44-.44,4.87-11.46,9.29-16.34,10.45Z"></path>
        <path class="cls-1" d="M1658.56,849.85c0,.28,0,.57,0,.86h0c0,.3,0,.59-.01.89h0c0,.31,0,.61-.02.92h0c0,.31,0,.62-.02.93h0c0,.32-.02.64-.04.96h0c0,.33-.02.65-.04.98h0c-.02.34-.03.67-.05,1h0c-.02.34-.04.68-.06,1.02h0c-.02.35-.04.7-.06,1.04h0c-.02.36-.05.71-.07,1.06h0c-.03.37-.05.72-.08,1.08h0c-.03.37-.06.74-.09,1.1h0c-.03.38-.06.75-.09,1.12h0c-.03.38-.06.76-.1,1.13h0c-.03.39-.06.77-.1,1.16h0c-.04.39-.07.78-.11,1.17h0c-.04.4-.08.79-.12,1.18h0c-.04.41-.08.81-.12,1.21h0c-.04.41-.09.81-.13,1.21h0c-.05.42-.09.83-.14,1.24h0c-.04.42-.09.83-.14,1.25h0c-.05.42-.09.84-.15,1.26h0c-.04.43-.1.86-.15,1.28h0c-.05.44-.1.86-.16,1.29h0c-.05.44-.1.87-.16,1.31h0c-.05.44-.11.88-.17,1.32h0c-.05.45-.11.89-.17,1.33h0c-.06.45-.12.9-.18,1.34h0c-.06.46-.12.91-.18,1.36h0c-.06.46-.13.91-.19,1.37h0c-.06.46-.13.92-.19,1.37h0c-.07.47-.13.93-.2,1.39h0c-.07.47-.14.94-.2,1.4h0c-.07.47-.14.94-.21,1.41h0c-.07.48-.14.94-.21,1.42h0c-.07.48-.14.95-.22,1.42h0c-.07.49-.14.96-.22,1.44h0c-.07.48-.14.96-.22,1.44h0c-.07.49-.15.97-.23,1.45h0c-.07.49-.15.97-.23,1.46h0c-.07.49-.15.98-.23,1.46h0c-.08.5-.16.99-.24,1.47h0c-.08.5-.16.99-.24,1.48h0c-.08.5-.16.99-.24,1.48h0c-.08.51-.16,1-.25,1.49h0c-.08.51-.16,1-.25,1.5h0c-.08.5-.17,1-.25,1.49h0c-.09.51-.17,1.01-.26,1.5h0c-.08.51-.17,1.01-.26,1.51h0c-.08.51-.17,1.01-.26,1.51h0c-.08.51-.17,1.01-.26,1.51h0c-.09.51-.18,1.01-.27,1.51h0c-.08.51-.17,1.01-.26,1.51h0c-.09.52-.18,1.02-.27,1.52h0c-.09.51-.18,1.01-.28,1.52h0c-.09.51-.18,1.01-.27,1.51h0c-.09.52-.18,1.02-.28,1.52h0c-.09.51-.18,1.02-.27,1.52h0c-.1.51-.19,1.02-.28,1.52h0c-.1.51-.19,1.01-.28,1.51h0c-.1.52-.19,1.02-.29,1.52h0c-.09.51-.18,1.01-.28,1.51h0c-.09.51-.19,1.01-.28,1.51h0c-.1.51-.19,1.01-.29,1.51h0c-.09.51-.19,1.01-.29,1.5h0c-.09.51-.19,1.01-.28,1.51t0,.01c-.1.49-.2.99-.29,1.48h0c-.1.51-.19,1-.29,1.5h0c-.1.5-.19.99-.29,1.49h0c-.1.5-.19.99-.29,1.48h0c-.1.5-.19.99-.29,1.48h0c-.1.5-.19.98-.29,1.47h0c-.1.5-.19.98-.29,1.46h0c-.1.5-.19.98-.29,1.46h0c-.1.49-.19.97-.29,1.45v.02c-.1.47-.19.95-.29,1.43h0c-.1.48-.19.95-.29,1.43v.02c-.1.47-.19.94-.29,1.41h0c-.09.48-.19.95-.29,1.42h0c-.09.48-.19.95-.28,1.41h0c-.1.48-.19.94-.29,1.4h0c-.1.47-.19.93-.29,1.39h0c-.09.47-.19.92-.28,1.38h0c-.1.46-.19.92-.28,1.37t0,.01c-.1.45-.19.9-.29,1.34h0c-.09.46-.18.91-.28,1.35h0c-.09.45-.18.89-.28,1.33h0c-.09.45-.18.89-.27,1.32h0c-.1.45-.19.88-.28,1.31h0c-.09.44-.18.87-.27,1.29h0c-.09.44-.18.86-.28,1.28v.02c-.08.42-.17.83-.26,1.25t0,.01c-.09.42-.18.83-.27,1.24h0c-.09.42-.18.83-.27,1.24h0c-.09.42-.17.82-.26,1.22h0c-.09.41-.17.8-.26,1.2v.02c-.09.39-.17.78-.26,1.17h0c-.08.4-.17.78-.25,1.17-.01.01,0,.02,0,.02-.09.38-.17.76-.26,1.14h0c-.08.39-.16.76-.25,1.13v.02c-.08.37-.16.73-.24,1.1v.02c-.08.36-.16.72-.24,1.08,0,.01,0,.02,0,.02-.08.36-.16.72-.24,1.07h0c-.08.37-.16.72-.24,1.06h0c-.08.36-.15.7-.23,1.04v.02c-.08.34-.16.68-.23,1.01h0c-.08.35-.15.68-.23,1h0c-.07.34-.14.66-.22.98v.02c-.07.31-.14.63-.22.94v.02c-.07.31-.14.61-.21.92v.02c-.07.3-.14.61-.21.9h0c-.07.31-.13.6-.2.89-.01.01,0,.02,0,.02-.07.29-.14.58-.21.86h0c-.06.29-.13.57-.19.85h0c-.07.29-.13.56-.19.82h0c-.06.28-.12.54-.19.8v.02c-.06.25-.12.51-.18.76h0c-.06.26-.12.51-.18.75h0c-.06.26-.11.49-.17.73h0c-.06.24-.11.47-.17.7h0c-.05.23-.1.46-.16.67h0c-.05.23-.1.44-.15.65h0c-.05.22-.1.42-.15.62t0,.01c-.05.2-.1.39-.15.58h0c-.05.2-.09.39-.14.57h0c-.04.19-.09.36-.13.53h0c-.04.18-.09.35-.13.51h0c-.04.17-.08.33-.12.48h0c-.05.2-.1.4-.15.6h0c-.06.22-.11.43-.17.64h0c-.06.23-.12.45-.18.68h0c-.06.24-.13.47-.19.72h0c-.07.25-.14.49-.21.75h0c-.07.26-.14.52-.21.79t0,0c-.08.26-.15.53-.23.81h0c-.08.29-.16.57-.24.86h0c-.08.29-.17.59-.26.89h0c-.08.31-.17.61-.26.92h0c-.09.32-.18.64-.27.96h0c-.1.33-.19.66-.29.99h0c-.1.34-.19.68-.3,1.02h0l-.3,1.05h0c-.11.37-.21.72-.32,1.08h0c-.11.38-.22.74-.33,1.12h0c-.11.38-.22.75-.34,1.14h0c-.11.39-.23.77-.35,1.16h0c-.12.4-.23.8-.36,1.2h0c-.12.41-.24.81-.37,1.22h0c-.12.42-.24.83-.37,1.25h0c-.13.42-.26.85-.39,1.27h0c-.13.44-.26.87-.4,1.3h0c-.13.44-.26.88-.4,1.32h0c-.14.45-.27.9-.42,1.35h0c-.14.45-.27.91-.42,1.36h0c-.14.47-.28.93-.43,1.39h0c-.14.48-.29.94-.44,1.42h0c-.15.48-.3.95-.45,1.43h0c-.15.49-.3.97-.45,1.45h0c-.16.49-.31.98-.47,1.47h0c-.15.5-.31,1-.47,1.49h0c-.15.51-.31,1.01-.48,1.51h0l-.48,1.53h0c-.16.52-.33,1.03-.49,1.54h0c-.17.52-.33,1.04-.5,1.56h0c-.17.53-.34,1.05-.51,1.57h0c-.17.54-.34,1.06-.51,1.59h0c-.17.54-.34,1.07-.52,1.61h0c-.17.54-.35,1.08-.53,1.61h0c-.17.55-.35,1.09-.53,1.63h0c-.17.56-.35,1.1-.53,1.65t0,.01c-.18.54-.36,1.09-.55,1.64h0c-.18.56-.36,1.11-.54,1.66h0c-.19.57-.37,1.12-.56,1.68h0c-.18.57-.37,1.12-.56,1.68h0c-.18.57-.37,1.13-.56,1.7h0c-.19.57-.38,1.13-.57,1.7h0c-.19.57-.38,1.14-.57,1.71h0c-.19.57-.38,1.14-.58,1.71h0c-.19.58-.38,1.15-.58,1.72h0c-.19.59-.39,1.16-.58,1.73h0c-.2.59-.39,1.16-.59,1.73h0c-.2.59-.4,1.17-.6,1.74h0c-.19.59-.39,1.16-.59,1.74h0c-.2.59-.4,1.17-.6,1.75h0c-.2.58-.4,1.16-.61,1.74h0s-.6,1.75-.6,1.75h0c-.2.59-.4,1.17-.61,1.75h0c-.2.59-.41,1.17-.61,1.75h0c-.2.59-.41,1.16-.62,1.74h0c-.2.59-.4,1.17-.61,1.75h0c-.21.59-.41,1.17-.62,1.75h0c-.21.58-.41,1.16-.62,1.74h0c-.21.59-.41,1.16-.62,1.74h0c-.21.59-.42,1.16-.63,1.74h0c-.2.58-.41,1.16-.62,1.73h0c-.21.58-.42,1.16-.63,1.73h0c-.2.58-.41,1.15-.62,1.72t0,.01c-.21.57-.42,1.14-.63,1.7h0c-.21.58-.42,1.15-.63,1.71h0c-.21.58-.42,1.14-.63,1.7h0c-.21.58-.42,1.14-.63,1.7h0c-.21.57-.42,1.12-.63,1.68h0c-.21.57-.42,1.12-.63,1.67h0c-.21.57-.42,1.12-.63,1.67h0c-.21.56-.42,1.1-.63,1.65h0c-.21.56-.42,1.1-.63,1.64h0c-.21.55-.42,1.09-.63,1.63h0c-.2.55-.41,1.08-.62,1.62t0,.01c-.21.53-.42,1.06-.63,1.59h0c-.21.54-.42,1.06-.63,1.59h0c-.2.53-.41,1.05-.62,1.57h0c-.21.53-.41,1.05-.62,1.56h0c-.21.52-.41,1.03-.62,1.54h0c-.42,1.03-.83,2.04-1.24,3.03h0c-.2.51-.4,1-.61,1.49h0c-.2.5-.41.99-.61,1.47h0c-1.02,2.44-2.03,4.79-3.02,7.05h0c-.6,1.36-1.19,2.68-1.77,3.96h0c-.19.44-.38.86-.58,1.27h0c-.19.43-.38.84-.58,1.25h0c-.19.42-.38.82-.57,1.22h0c-.19.41-.38.8-.57,1.19h0c-.85,1.77-1.69,3.45-2.5,5.02-.27.53-.54,1.04-.81,1.54h0c-.17.35-.35.67-.53.99h0c-.35.65-.7,1.27-1.04,1.88t0,.01c-.17.3-.34.59-.52.88h0c-.17.3-.33.58-.5.85h0c-.34.57-.67,1.1-1,1.61h0c-.16.26-.32.51-.48.75t0,.01c-.16.24-.32.48-.48.7h0c-.16.24-.32.46-.48.68h0c-.78,1.1-1.53,2.03-2.24,2.79h0c-.14.16-.28.31-.42.44-.17.17-.35.34-.52.49-.25.23-.51.43-.75.61-.22.15-.43.29-.63.4-.03.02-.06.03-.09.05-8.92,4.75-30.39-6.96-40.59-11.15-4-1.64-8-3.31-11.99-4.99-1.99-.84-3.99-1.69-5.98-2.54-5.98-2.56-11.95-5.15-17.92-7.77-3.97-1.75-7.94-3.52-11.91-5.29-3.97-1.78-7.94-3.57-11.9-5.36-17.83-8.09-35.62-16.37-53.41-24.62-1.98-.92-3.95-1.84-5.93-2.75-3.96-1.84-7.91-3.67-11.87-5.49-3.95-1.83-7.91-3.65-11.87-5.46-3.96-1.82-7.92-3.62-11.88-5.42-1.98-.9-3.96-1.8-5.95-2.69-3.96-1.79-7.93-3.57-11.9-5.33-5.96-2.65-11.92-5.27-17.89-7.85-.15-.06-.3-.13-.46-.21-.07-.02-.14-.06-.22-.09-.67-.32-1.35-.68-2.03-1.07-4.52-2.62-9.1-6.63-13.15-9.15-.2-.13-.41-.25-.61-.37-.2-.12-.4-.23-.59-.34-.2-.11-.4-.22-.59-.32-.39-.2-.76-.38-1.14-.54h-.01c-.56-.25-1.11-.44-1.64-.57-16.78-4.13-69.14,18.01-88.16,17.67-.16,0-.31,0-.47-.01-.15-.01-.3-.01-.44-.02-1.18-.08-2.17-.25-3.05-.52-.44-.14-.85-.3-1.23-.49-.19-.09-.38-.19-.56-.3-.23-.14-.46-.29-.68-.44-.22-.17-.43-.33-.63-.51h0c-.21-.19-.4-.37-.6-.57-.11-.11-.21-.22-.31-.33-.1-.1-.19-.2-.29-.3-.09-.1-.18-.21-.27-.32-.3-.36-.6-.74-.91-1.14-.39-.53-.8-1.1-1.24-1.71l33.02-160.72,406.09-75.61c1.59,1.68,2.27,6.16,2.27,12.63Z"></path>
        <path class="cls-1" d="M1218.42,1075.26c.31.4.61.78.91,1.14-.3-.36-.6-.73-.91-1.14Z"></path>
        <polygon class="cls-1" points="1656.29 837.21 1656.29 837.22 1250.2 912.83 1250.2 912.82 1656.29 837.21"></polygon>
      </g>
      <path class="cls-1" d="M832.25,327.49c0,.77-.31,1.46-.81,1.96-.49.5-1.19.81-1.96.83-211.79,1.05-383.28,123.15-385.35,274.17-.02,1.53-1.26,2.77-2.79,2.77h-2.25c-1.53,0-2.75-1.23-2.78-2.77-2.07-151.02-173.56-273.12-385.35-274.17-1.54-.01-2.79-1.25-2.79-2.79,0-.77.31-1.46.81-1.96.5-.5,1.21-.81,1.98-.81,211.79-1.07,383.28-123.15,385.35-274.17.02-1.53,1.25-2.77,2.78-2.77h2.25c1.53,0,2.77,1.23,2.79,2.77,2.07,151.02,173.56,273.11,385.35,274.17,1.54,0,2.78,1.25,2.78,2.78Z"></path>
    </g>
  </g>
</svg><style>@media (prefers-color-scheme: light) { :root { filter: none; } }
@media (prefers-color-scheme: dark) { :root { filter: contrast(0.3846153846153846) brightness(4.5); } }
</style></svg>